<?xml version="1.0" encoding="utf-8"?>
<!-- Generator: Adobe Illustrator 24.1.0, SVG Export Plug-In . SVG Version: 6.00 Build 0)  -->
<svg version="1.1" id="Text" xmlns="http://www.w3.org/2000/svg" xmlns:xlink="http://www.w3.org/1999/xlink" x="0px" y="0px"
	 viewBox="0 0 72 72" style="enable-background:new 0 0 72 72;" xml:space="preserve">
<style type="text/css">
	.st0{fill:#0B152F;}
	.st1{fill:#FFFFFF;}
	.st2{fill:#CB1D3B;}
</style>
<circle class="st0" cx="36" cy="36" r="36"/>
<g>
	<g>
		<path class="st1" d="M7.4,43.4v-1.1c0-0.3,0.2-0.6,0.6-0.6h5.7c0.3,0,0.6,0.2,0.6,0.6v0.7c0,2.5,2.5,4.7,6.8,4.7
			c3.8,0,5.2-1.9,5.2-3.9c0-2.5-2.5-3.4-7.3-5.2C13.9,37,7.9,34.6,7.9,28c0-6.1,5-9.9,12.2-9.9c7.6,0,13.1,4.3,13.1,10.7v0.7
			c0,0.3-0.2,0.6-0.6,0.6h-5.7c-0.3,0-0.6-0.2-0.6-0.6v-0.4c0-2.6-2.2-5-6.4-5c-3.1,0-5,1.4-5,3.7c0,2.6,2.2,3.5,7.8,5.4
			C27.1,35,33.4,37,33.4,43.7c0,6.3-5,10.1-12.8,10.1C12.6,53.9,7.4,49.8,7.4,43.4z"/>
	</g>
	<g>
		<path class="st2" d="M37.1,41V30.9c0-7.7,5.5-12.8,13.7-12.8s13.7,4.8,13.7,12c0,0.3-0.3,0.5-0.8,0.5l-7.9,0.5
			c-0.5,0.1-0.8-0.2-0.8-0.5c0-2.7-1.7-4.5-4.4-4.5c-2.6,0-4.4,1.8-4.4,4.5v10.7c0,2.6,1.7,4.4,4.4,4.4c2.6,0,4.4-1.8,4.4-4.4
			c0-0.4,0.2-0.6,0.8-0.5l7.9,0.4c0.5,0.1,0.8,0.2,0.8,0.5c0,7.3-5.5,12.1-13.7,12.1S37.1,48.7,37.1,41z"/>
	</g>
</g>
</svg>
