<?xml version="1.0" encoding="utf-8"?>
<!-- Generator: Adobe Illustrator 24.1.0, SVG Export Plug-In . SVG Version: 6.00 Build 0)  -->
<svg version="1.1" id="Text" xmlns="http://www.w3.org/2000/svg" xmlns:xlink="http://www.w3.org/1999/xlink" x="0px" y="0px"
	 viewBox="0 0 1000 428.3" style="enable-background:new 0 0 1000 428.3;" xml:space="preserve">
<style type="text/css">
	.st0{fill:#0B152F;}
	.st1{fill:#CB1D3B;}
</style>
<g>
	<path class="st0" d="M5,111.2v-4.8c0-1.5,1.1-2.6,2.6-2.6h25c1.5,0,2.6,1.1,2.6,2.6v3.3c0,11.2,11,20.8,30.1,20.8
		c16.7,0,23-8.3,23-17.1c0-11.2-11.2-15.1-32.3-22.8C33.3,82.7,7.2,72.4,7.2,43.4C7.2,16.5,29.1,0,60.7,0
		c33.6,0,57.5,18.9,57.5,47.2v3.3c0,1.5-1.1,2.6-2.6,2.6H90.3c-1.5,0-2.6-1.1-2.6-2.6v-1.8c0-11.4-9.9-22.2-28.3-22.2
		c-13.8,0-21.9,6.1-21.9,16.5c0,11.4,9.9,15.4,34.2,23.9c19.7,7.2,47.6,15.8,47.6,45.6c0,27.6-21.9,44.5-56.2,44.5
		C27.6,157.1,5,139.1,5,111.2z"/>
	<path class="st0" d="M177.4,103.8V53.1c0-32,22.6-53.1,56.8-53.1c34.2,0,57,20.2,57,50.7c0,1.3-0.9,2.2-2.6,2.4L263,54.6
		c-1.8,0.2-2.6-0.7-2.6-2.4c0-15.4-10.3-25.7-26.1-25.7c-15.6,0-25.9,10.3-25.9,25.7v52.9c0,15.1,10.3,25.5,25.9,25.5
		c15.8,0,26.1-10.3,26.1-25.5c0-1.5,0.9-2.4,2.6-2.4l25.7,1.1c1.5,0,2.6,0.9,2.6,2.2c0,30.7-22.8,51.1-57,51.1
		C200,157.1,177.4,135.8,177.4,103.8z"/>
	<path class="st0" d="M435.9,153.4l-27.4-60.8c-0.2-0.4-0.9-0.9-1.3-0.9h-20.2c-0.7,0-1.1,0.4-1.1,1.1v59.9c0,1.5-1.1,2.6-2.6,2.6
		h-25.7c-1.5,0-2.6-1.1-2.6-2.6V4.4c0-1.5,1.1-2.6,2.6-2.6h62.7c28.1,0,46.9,18.4,46.9,46.3c0,20-11,34.7-28.3,40.6
		c-0.7,0.2-0.9,0.9-0.7,1.5l29.6,62.1c0.9,2,0,3.1-2,3.1h-27C437.6,155.3,436.5,154.9,435.9,153.4z M385.8,29.4v37.5
		c0,0.7,0.4,1.1,1.1,1.1h28.5c12.5,0,20.8-7.9,20.8-19.7s-8.3-20-20.8-20h-28.5C386.3,28.3,385.8,28.7,385.8,29.4z"/>
	<path class="st0" d="M636.8,28.3h-71.7c-0.7,0-1.1,0.4-1.1,1.1v34c0,0.7,0.4,1.1,1.1,1.1h47c1.5,0,2.6,1.1,2.6,2.6v21.3
		c0,1.5-1.1,2.6-2.6,2.6h-47c-0.7,0-1.1,0.4-1.1,1.1v35.5c0,0.7,0.4,1.1,1.1,1.1h71.7c1.5,0,2.6,1.1,2.6,2.6v21.3
		c0,1.5-1.1,2.6-2.6,2.6H535.7c-1.5,0-2.6-1.1-2.6-2.6V4.4c0-1.5,1.1-2.6,2.6-2.6h101.1c1.5,0,2.6,1.1,2.6,2.6v21.3
		C639.5,27.2,638.4,28.3,636.8,28.3z"/>
	<path class="st0" d="M809.3,28.3h-71.7c-0.7,0-1.1,0.4-1.1,1.1v34c0,0.7,0.4,1.1,1.1,1.1h47c1.5,0,2.6,1.1,2.6,2.6v21.3
		c0,1.5-1.1,2.6-2.6,2.6h-47c-0.7,0-1.1,0.4-1.1,1.1v35.5c0,0.7,0.4,1.1,1.1,1.1h71.7c1.5,0,2.6,1.1,2.6,2.6v21.3
		c0,1.5-1.1,2.6-2.6,2.6H708.1c-1.5,0-2.6-1.1-2.6-2.6V4.4c0-1.5,1.1-2.6,2.6-2.6h101.1c1.5,0,2.6,1.1,2.6,2.6v21.3
		C811.9,27.2,810.8,28.3,809.3,28.3z"/>
	<path class="st0" d="M968.8,1.8h25.7c1.5,0,2.6,1.1,2.6,2.6v148.3c0,1.5-1.1,2.6-2.6,2.6h-27.6c-1.3,0-2.6-0.4-3.3-1.8l-53.8-93
		c-0.4-0.9-1.3-0.7-1.3,0.4l0.2,91.7c0,1.5-1.1,2.6-2.6,2.6h-25.7c-1.5,0-2.6-1.1-2.6-2.6V4.4c0-1.5,1.1-2.6,2.6-2.6h27.9
		c1.3,0,2.6,0.7,3.3,1.8l53.3,93c0.4,0.9,1.3,0.7,1.3-0.4V4.4C966.1,2.9,967.2,1.8,968.8,1.8z"/>
</g>
<g>
	<path class="st1" d="M0,337.1v-73.7c0-56.2,40.2-93.4,100.7-93.4s100.7,35,100.7,88c0,2.2-2.2,3.7-5.5,4l-57.7,3.7
		c-3.7,0.4-5.5-1.1-5.5-4c0-19.7-12.8-32.9-32.1-32.9s-32.1,13.1-32.1,32.9V340c0,19.3,12.8,32.5,32.1,32.5s32.1-13.1,32.1-32.5
		c0-2.6,1.8-4.4,5.5-4l57.7,2.9c3.7,0.4,5.5,1.5,5.5,3.6c0,53.3-40.2,88.7-100.7,88.7S0,393.7,0,337.1z"/>
	<path class="st1" d="M252.6,334.9v-68.6c0-57.7,40.9-96.4,102.2-96.4c61.7,0,102.6,38.7,102.6,96.4v68.6
		c0,58.8-40.9,97.8-102.6,97.8C293.5,432.7,252.6,393.7,252.6,334.9z M388.7,337.1v-71.5c0-22.3-13.5-36.9-33.9-36.9
		c-20.1,0-33.6,14.6-33.6,36.9v71.5c0,22.3,13.5,36.9,33.6,36.9C375.2,374,388.7,359.4,388.7,337.1z"/>
	<path class="st1" d="M651.2,424.3L611,331.6c-0.4-0.7-1.5-1.5-2.2-1.5h-15.3c-1.1,0-1.8,0.7-1.8,1.8v90.9c0,3.3-2.2,5.5-5.5,5.5
		h-57.7c-3.3,0-5.5-2.2-5.5-5.5V178.3c0-3.3,2.2-5.5,5.5-5.5h110.6c50,0,83.2,32.5,83.2,81.4c0,32.5-16.8,57.3-44.5,68.6
		c-1.1,0.4-1.5,1.5-1.1,2.6l46.4,96.4c1.8,4-0.4,6.6-4.4,6.6h-61.3C654.4,428.3,652.2,427.2,651.2,424.3z M591.7,233.4v42.7
		c0,1.1,0.7,1.8,1.8,1.8h34.3c15.7,0,26.3-9.1,26.3-23s-10.6-23.4-26.3-23.4h-34.3C592.4,231.6,591.7,232.3,591.7,233.4z"/>
	<path class="st1" d="M786.6,422.9V178.3c0-3.3,2.2-5.5,5.5-5.5h57.7c3.3,0,5.5,2.2,5.5,5.5v87.2c0,1.5,1.1,2.2,2.2,0.7l63.5-90.2
		c1.5-2.2,4-3.3,6.9-3.3h65.3c4.4,0,5.8,2.9,3.3,6.6l-75.9,105.5c-0.4,0.7-0.4,1.8,0,2.6L999,421.8c2.2,4,0.7,6.6-3.6,6.6h-64.6
		c-2.9,0-5.1-0.7-6.6-3.6l-50.4-89.8c-0.7-1.5-1.8-1.5-2.6,0l-15.3,23.4c-0.4,0.7-0.7,1.5-0.7,2.2v62.4c0,3.3-2.2,5.5-5.5,5.5H792
		C788.8,428.3,786.6,426.2,786.6,422.9z"/>
</g>
</svg>
